HIERARCHY
ROOT pelvis
{
  OFFSET 0 100 0
  CHANNELS 6 Xposition Yposition Zposition Zrotation Xrotation Yrotation
  JOINT pelvis_right_femur
  {
    OFFSET -10.78128 -3.44521 -0.5502486
    CHANNELS 3 Zrotation Xrotation Yrotation
    JOINT right_femur_tibia
    {
      OFFSET -0.8047443 -44.0398 -0.1307829
      CHANNELS 3 Zrotation Xrotation Yrotation
      JOINT right_tibia_foot
      {
        OFFSET 3.006224 -47.83518 -5
        CHANNELS 3 Zrotation Xrotation Yrotation
        End Site
        {
          OFFSET 0 -5 15
        }
      }
    }
  }
  JOINT pelvis_left_femur
  {
    OFFSET 10.78128 -3.44521 -0.5502486
    CHANNELS 3 Zrotation Xrotation Yrotation
    JOINT left_femur_tibia
    {
      OFFSET 0.8047443 -44.0398 -0.1307829
      CHANNELS 3 Zrotation Xrotation Yrotation
      JOINT left_tibia_foot
      {
        OFFSET -4.370144 -48.10324 -4.275266
        CHANNELS 3 Zrotation Xrotation Yrotation
        End Site
        {
          OFFSET 0 -5 15
        }
      }
    }
  }
  JOINT pelvis_spine1
  {
    OFFSET 0 6.468898 -3.129235
    CHANNELS 3 Zrotation Xrotation Yrotation
    JOINT spine1
    {
      OFFSET 0 23.15396 4.99043
      CHANNELS 3 Zrotation Xrotation Yrotation
      JOINT spine2
      {
        OFFSET 0 20.79997 -5.064912
        CHANNELS 3 Zrotation Xrotation Yrotation
        JOINT neck
        {
          OFFSET 0 14.38658 9.616178
          CHANNELS 3 Zrotation Xrotation Yrotation
          End Site
          {
            OFFSET 0 20 0
          }
        }
      }
      JOINT right_manubrium
      {
        OFFSET -5.722621 16.35077 3.967754
        CHANNELS 3 Zrotation Xrotation Yrotation
        JOINT right_clavicle
        {
          OFFSET -13.16364 1.694482 -4.693211
          CHANNELS 3 Zrotation Xrotation Yrotation
          JOINT right_humerus
          {
            OFFSET -28.5034 -0.3100689 -2.792744
            CHANNELS 3 Zrotation Xrotation Yrotation
            JOINT right_radius
            {
              OFFSET -25.15693 0.02248979 -1.271978
              CHANNELS 3 Zrotation Xrotation Yrotation
              End Site
              {
                OFFSET -15 0 0
              }
            }
          }
        }
      }
      JOINT left_manubrium
      {
        OFFSET 5.722621 16.35077 3.967754
        CHANNELS 3 Zrotation Xrotation Yrotation
        JOINT left_clavicle
        {
          OFFSET 13.16364 1.694482 -4.693211
          CHANNELS 3 Zrotation Xrotation Yrotation
          JOINT left_humerus
          {
            OFFSET 29.39168 -1.063119 -2.237045
            CHANNELS 3 Zrotation Xrotation Yrotation
            JOINT left_radius
            {
              OFFSET 24.59957 -0.9528479 0.9047498
              CHANNELS 3 Zrotation Xrotation Yrotation
              End Site
              {
                OFFSET 15 -0 -0
              }
            }
          }
        }
      }
    }
  }
}
MOTION
Frames: 21
Frame Time: 0.0416666666667
-353.9793 116.7882 -30.68409 12.3551 -5.319431 72.26292 6.705294 13.30356 -2.837878 -0 15.83654 -0 -7.481235 -5.190468 -1.884962 0.1692649 -8.38341 -9.623567 -0 23.55636 -0 -3.796158 -7.721039 20.54123 2.054632 -1.534729 3.852049 -0.5660063 12.88627 -2.674322 4.118261 25.73805 1.950273 -1.047221 -20.99428 8.402223 -7.335998 -25.466 10.64995 94.74938 5.694616 -9.100259 -0 0 16.71004 -24.70897 11.18829 16.54883 2.979249 -17.90249 -6.849994 -97.86819 24.13083 28.06999 0 0 -5.943966 1.771074 20.98635 9.598977
-348.5679 116.7616 -29.1179 12.29348 -5.462105 71.60699 6.705294 13.30356 -2.837878 -0 15.83654 -0 -7.481235 -5.190468 -1.884962 0.1692649 -8.38341 -9.623567 -0 23.55636 -0 -3.796158 -7.721039 20.54123 2.054632 -1.534729 3.852049 -0.5660063 12.88627 -2.674322 4.118261 25.73805 1.950273 -1.047221 -20.99428 8.402223 -7.335998 -25.466 10.64995 94.74938 5.694616 -9.100259 -0 0 16.71004 -24.70897 11.18829 16.54883 2.979249 -17.90249 -6.849994 -97.86819 24.13083 28.06999 0 0 -5.943966 1.771074 20.98635 9.598977
-343.1751 116.735 -27.48867 12.2302 -5.604068 70.95075 6.705294 13.30356 -2.837878 -0 15.83654 -0 -7.481235 -5.190468 -1.884962 0.1692649 -8.38341 -9.623567 -0 23.55636 -0 -3.796158 -7.721039 20.54123 2.054632 -1.534729 3.852049 -0.5660063 12.88627 -2.674322 4.118261 25.73805 1.950273 -1.047221 -20.99428 8.402223 -7.335998 -25.466 10.64995 94.74938 5.694616 -9.100259 -0 0 16.71004 -24.70897 11.18829 16.54883 2.979249 -17.90249 -6.849994 -97.86819 24.13083 28.06999 0 0 -5.943966 1.771074 20.98635 9.598977
-337.8018 116.7084 -25.79665 12.16528 -5.745299 70.29419 6.705294 13.30356 -2.837878 -0 15.83654 -0 -7.481235 -5.190468 -1.884962 0.1692649 -8.38341 -9.623567 -0 23.55636 -0 -3.796158 -7.721039 20.54123 2.054632 -1.534729 3.852049 -0.5660063 12.88627 -2.674322 4.118261 25.73805 1.950273 -1.047221 -20.99428 8.402223 -7.335998 -25.466 10.64995 94.74938 5.694616 -9.100259 -0 0 16.71004 -24.70897 11.18829 16.54883 2.979249 -17.90249 -6.849994 -97.86819 24.13083 28.06999 0 0 -5.943966 1.771074 20.98635 9.598977
-332.4485 116.6818 -24.04205 12.09872 -5.885781 69.63731 6.705294 13.30356 -2.837878 -0 15.83654 -0 -7.481235 -5.190468 -1.884962 0.1692649 -8.38341 -9.623567 -0 23.55636 -0 -3.796158 -7.721039 20.54123 2.054632 -1.534729 3.852049 -0.5660063 12.88627 -2.674322 4.118261 25.73805 1.950273 -1.047221 -20.99428 8.402223 -7.335998 -25.466 10.64995 94.74938 5.694616 -9.100259 -0 0 16.71004 -24.70897 11.18829 16.54883 2.979249 -17.90249 -6.849994 -97.86819 24.13083 28.06999 0 0 -5.943966 1.771074 20.98635 9.598977
-327.116 116.6552 -22.22513 12.03053 -6.025495 68.9801 6.705294 13.30356 -2.837878 -0 15.83654 -0 -7.481235 -5.190468 -1.884962 0.1692649 -8.38341 -9.623567 -0 23.55636 -0 -3.796158 -7.721039 20.54123 2.054632 -1.534729 3.852049 -0.5660063 12.88627 -2.674322 4.118261 25.73805 1.950273 -1.047221 -20.99428 8.402223 -7.335998 -25.466 10.64995 94.74938 5.694616 -9.100259 -0 0 16.71004 -24.70897 11.18829 16.54883 2.979249 -17.90249 -6.849994 -97.86819 24.13083 28.06999 0 0 -5.943966 1.771074 20.98635 9.598977
-321.8052 116.6286 -20.34611 11.96071 -6.164421 68.32254 6.705294 13.30356 -2.837878 -0 15.83654 -0 -7.481235 -5.190468 -1.884962 0.1692649 -8.38341 -9.623567 -0 23.55636 -0 -3.796158 -7.721039 20.54123 2.054632 -1.534729 3.852049 -0.5660063 12.88627 -2.674322 4.118261 25.73805 1.950273 -1.047221 -20.99428 8.402223 -7.335998 -25.466 10.64995 94.74938 5.694616 -9.100259 -0 0 16.71004 -24.70897 11.18829 16.54883 2.979249 -17.90249 -6.849994 -97.86819 24.13083 28.06999 0 0 -5.943966 1.771074 20.98635 9.598977
-316.5165 116.602 -18.40527 11.88927 -6.302541 67.66465 6.705294 13.30356 -2.837878 -0 15.83654 -0 -7.481235 -5.190468 -1.884962 0.1692649 -8.38341 -9.623567 -0 23.55636 -0 -3.796158 -7.721039 20.54123 2.054632 -1.534729 3.852049 -0.5660063 12.88627 -2.674322 4.118261 25.73805 1.950273 -1.047221 -20.99428 8.402223 -7.335998 -25.466 10.64995 94.74938 5.694616 -9.100259 -0 0 16.71004 -24.70897 11.18829 16.54883 2.979249 -17.90249 -6.849994 -97.86819 24.13083 28.06999 0 0 -5.943966 1.771074 20.98635 9.598977
-311.2509 116.5754 -16.40286 11.81623 -6.439836 67.00641 6.705294 13.30356 -2.837878 -0 15.83654 -0 -7.481235 -5.190468 -1.884962 0.1692649 -8.38341 -9.623567 -0 23.55636 -0 -3.796158 -7.721039 20.54123 2.054632 -1.534729 3.852049 -0.5660063 12.88627 -2.674322 4.118261 25.73805 1.950273 -1.047221 -20.99428 8.402223 -7.335998 -25.466 10.64995 94.74938 5.694616 -9.100259 -0 0 16.71004 -24.70897 11.18829 16.54883 2.979249 -17.90249 -6.849994 -97.86819 24.13083 28.06999 0 0 -5.943966 1.771074 20.98635 9.598977
-306.0091 116.5487 -14.33917 11.74158 -6.576288 66.34781 6.705294 13.30356 -2.837878 -0 15.83654 -0 -7.481235 -5.190468 -1.884962 0.1692649 -8.38341 -9.623567 -0 23.55636 -0 -3.796158 -7.721039 20.54123 2.054632 -1.534729 3.852049 -0.5660063 12.88627 -2.674322 4.118261 25.73805 1.950273 -1.047221 -20.99428 8.402223 -7.335998 -25.466 10.64995 94.74938 5.694616 -9.100259 -0 0 16.71004 -24.70897 11.18829 16.54883 2.979249 -17.90249 -6.849994 -97.86819 24.13083 28.06999 0 0 -5.943966 1.771074 20.98635 9.598977
-300.7916 116.5221 -12.21445 11.66534 -6.711878 65.68885 6.705294 13.30356 -2.837878 -0 15.83654 -0 -7.481235 -5.190468 -1.884962 0.1692649 -8.38341 -9.623567 -0 23.55636 -0 -3.796158 -7.721039 20.54123 2.054632 -1.534729 3.852049 -0.5660063 12.88627 -2.674322 4.118261 25.73805 1.950273 -1.047221 -20.99428 8.402223 -7.335998 -25.466 10.64995 94.74938 5.694616 -9.100259 -0 0 16.71004 -24.70897 11.18829 16.54883 2.979249 -17.90249 -6.849994 -97.86819 24.13083 28.06999 0 0 -5.943966 1.771074 20.98635 9.598977
-295.5993 116.4955 -10.02902 11.58751 -6.846589 65.02952 6.705294 13.30356 -2.837878 -0 15.83654 -0 -7.481235 -5.190468 -1.884962 0.1692649 -8.38341 -9.623567 -0 23.55636 -0 -3.796158 -7.721039 20.54123 2.054632 -1.534729 3.852049 -0.5660063 12.88627 -2.674322 4.118261 25.73805 1.950273 -1.047221 -20.99428 8.402223 -7.335998 -25.466 10.64995 94.74938 5.694616 -9.100259 -0 0 16.71004 -24.70897 11.18829 16.54883 2.979249 -17.90249 -6.849994 -97.86819 24.13083 28.06999 0 0 -5.943966 1.771074 20.98635 9.598977
-290.4328 116.4689 -7.783163 11.5081 -6.9804 64.36982 6.705294 13.30356 -2.837878 -0 15.83654 -0 -7.481235 -5.190468 -1.884962 0.1692649 -8.38341 -9.623567 -0 23.55636 -0 -3.796158 -7.721039 20.54123 2.054632 -1.534729 3.852049 -0.5660063 12.88627 -2.674322 4.118261 25.73805 1.950273 -1.047221 -20.99428 8.402223 -7.335998 -25.466 10.64995 94.74938 5.694616 -9.100259 -0 0 16.71004 -24.70897 11.18829 16.54883 2.979249 -17.90249 -6.849994 -97.86819 24.13083 28.06999 0 0 -5.943966 1.771074 20.98635 9.598977
-285.2929 116.4423 -5.477186 11.42712 -7.113295 63.70975 6.705294 13.30356 -2.837878 -0 15.83654 -0 -7.481235 -5.190468 -1.884962 0.1692649 -8.38341 -9.623567 -0 23.55636 -0 -3.796158 -7.721039 20.54123 2.054632 -1.534729 3.852049 -0.5660063 12.88627 -2.674322 4.118261 25.73805 1.950273 -1.047221 -20.99428 8.402223 -7.335998 -25.466 10.64995 94.74938 5.694616 -9.100259 -0 0 16.71004 -24.70897 11.18829 16.54883 2.979249 -17.90249 -6.849994 -97.86819 24.13083 28.06999 0 0 -5.943966 1.771074 20.98635 9.598977
-280.1803 116.4157 -3.111403 11.34458 -7.245255 63.0493 6.705294 13.30356 -2.837878 -0 15.83654 -0 -7.481235 -5.190468 -1.884962 0.1692649 -8.38341 -9.623567 -0 23.55636 -0 -3.796158 -7.721039 20.54123 2.054632 -1.534729 3.852049 -0.5660063 12.88627 -2.674322 4.118261 25.73805 1.950273 -1.047221 -20.99428 8.402223 -7.335998 -25.466 10.64995 94.74938 5.694616 -9.100259 -0 0 16.71004 -24.70897 11.18829 16.54883 2.979249 -17.90249 -6.849994 -97.86819 24.13083 28.06999 0 0 -5.943966 1.771074 20.98635 9.598977
-275.0956 116.3891 -0.6861361 11.26048 -7.376261 62.38846 6.705294 13.30356 -2.837878 -0 15.83654 -0 -7.481235 -5.190468 -1.884962 0.1692649 -8.38341 -9.623567 -0 23.55636 -0 -3.796158 -7.721039 20.54123 2.054632 -1.534729 3.852049 -0.5660063 12.88627 -2.674322 4.118261 25.73805 1.950273 -1.047221 -20.99428 8.402223 -7.335998 -25.466 10.64995 94.74938 5.694616 -9.100259 -0 0 16.71004 -24.70897 11.18829 16.54883 2.979249 -17.90249 -6.849994 -97.86819 24.13083 28.06999 0 0 -5.943966 1.771074 20.98635 9.598977
-270.0395 116.3625 1.798284 11.17485 -7.506297 61.72723 6.705294 13.30356 -2.837878 -0 15.83654 -0 -7.481235 -5.190468 -1.884962 0.1692649 -8.38341 -9.623567 -0 23.55636 -0 -3.796158 -7.721039 20.54123 2.054632 -1.534729 3.852049 -0.5660063 12.88627 -2.674322 4.118261 25.73805 1.950273 -1.047221 -20.99428 8.402223 -7.335998 -25.466 10.64995 94.74938 5.694616 -9.100259 -0 0 16.71004 -24.70897 11.18829 16.54883 2.979249 -17.90249 -6.849994 -97.86819 24.13083 28.06999 0 0 -5.943966 1.771074 20.98635 9.598977
-265.0128 116.3359 4.341519 11.08768 -7.635344 61.06561 6.705294 13.30356 -2.837878 -0 15.83654 -0 -7.481235 -5.190468 -1.884962 0.1692649 -8.38341 -9.623567 -0 23.55636 -0 -3.796158 -7.721039 20.54123 2.054632 -1.534729 3.852049 -0.5660063 12.88627 -2.674322 4.118261 25.73805 1.950273 -1.047221 -20.99428 8.402223 -7.335998 -25.466 10.64995 94.74938 5.694616 -9.100259 -0 0 16.71004 -24.70897 11.18829 16.54883 2.979249 -17.90249 -6.849994 -97.86819 24.13083 28.06999 0 0 -5.943966 1.771074 20.98635 9.598977
-260.016 116.3093 6.943224 10.99898 -7.763384 60.40358 6.705294 13.30356 -2.837878 -0 15.83654 -0 -7.481235 -5.190468 -1.884962 0.1692649 -8.38341 -9.623567 -0 23.55636 -0 -3.796158 -7.721039 20.54123 2.054632 -1.534729 3.852049 -0.5660063 12.88627 -2.674322 4.118261 25.73805 1.950273 -1.047221 -20.99428 8.402223 -7.335998 -25.466 10.64995 94.74938 5.694616 -9.100259 -0 0 16.71004 -24.70897 11.18829 16.54883 2.979249 -17.90249 -6.849994 -97.86819 24.13083 28.06999 0 0 -5.943966 1.771074 20.98635 9.598977
-255.05 116.2827 9.603043 10.90877 -7.8904 59.74116 6.705294 13.30356 -2.837878 -0 15.83654 -0 -7.481235 -5.190468 -1.884962 0.1692649 -8.38341 -9.623567 -0 23.55636 -0 -3.796158 -7.721039 20.54123 2.054632 -1.534729 3.852049 -0.5660063 12.88627 -2.674322 4.118261 25.73805 1.950273 -1.047221 -20.99428 8.402223 -7.335998 -25.466 10.64995 94.74938 5.694616 -9.100259 -0 0 16.71004 -24.70897 11.18829 16.54883 2.979249 -17.90249 -6.849994 -97.86819 24.13083 28.06999 0 0 -5.943966 1.771074 20.98635 9.598977
-250.1153 116.2561 12.32062 10.81705 -8.016374 59.07833 6.705294 13.30356 -2.837878 -0 15.83654 -0 -7.481235 -5.190468 -1.884962 0.1692649 -8.38341 -9.623567 -0 23.55636 -0 -3.796158 -7.721039 20.54123 2.054632 -1.534729 3.852049 -0.5660063 12.88627 -2.674322 4.118261 25.73805 1.950273 -1.047221 -20.99428 8.402223 -7.335998 -25.466 10.64995 94.74938 5.694616 -9.100259 -0 0 16.71004 -24.70897 11.18829 16.54883 2.979249 -17.90249 -6.849994 -97.86819 24.13083 28.06999 0 0 -5.943966 1.771074 20.98635 9.598977
